<svg width="148" height="116" viewBox="0 0 148 116" fill="none" xmlns="http://www.w3.org/2000/svg">
<g filter="url(#filter0_d_2650_1609)">
<path d="M76.6806 31.3924C77.2041 31.0071 77.4066 29.8144 77.1918 29.196C75.6263 25.7261 74.846 21.6967 73.4138 18.2267C73.0508 17.3506 72.836 16.3003 71.6977 16.2292C70.4482 16.1531 69.626 17.0365 69.8877 18.2783C71.5792 21.893 72.3076 25.9077 73.8533 29.569C74.3126 30.6586 75.1472 32.5187 76.6806 31.3899V31.3924ZM92.4863 18.5335C91.827 17.7236 90.7801 18.0108 90.0739 18.6292L86.9404 26.985C86.491 28.774 87.1848 30.05 89.1751 29.5077C89.3825 29.4513 89.5874 28.9605 89.6837 28.7445C90.4245 27.1003 92.5209 21.7973 92.753 20.2414C92.8394 19.6648 92.8789 19.0194 92.4863 18.5359V18.5335ZM55.5809 31.9028C55.729 32.0451 56.2871 32.0279 56.5982 32.2365C59.0156 33.8586 61.3885 35.5298 63.9072 36.9997C65.5245 37.7065 66.853 35.7506 65.6283 34.5531L57.0624 29.0586C55.3685 28.6341 54.8129 31.1617 55.5809 31.9028ZM130.836 74.4132C132.157 70.2071 133.686 66.0599 135.162 61.9053C136.804 57.2868 140.36 52.0549 135.995 47.8169C134.972 46.823 133.33 46.158 131.923 45.9617C131.409 45.8905 130.377 46.2414 130.212 45.9617C129.888 44.8353 130.705 43.8537 130.834 42.6341C131.708 34.2881 121.307 31.5641 117.994 38.8329C115.678 37.0807 114.3 36.0255 111.206 36.3789C107.566 36.7936 105.559 40.5408 104.907 43.7433C104.541 44.0623 102.489 42.396 101.924 42.1678C99.3583 41.1298 96.6668 41.6623 94.5654 43.4145C91.8147 45.7089 90.7899 53.2746 88.9528 56.5138L88.1404 56.477C86.9873 49.7163 80.871 45.2353 75.1522 50.8525C73.6311 47.5666 72.6088 44.0132 68.4284 43.3089C65.5418 42.823 64.0751 44.5678 61.8454 45.7237C59.3317 40.6783 51.9683 40.7396 49.7732 46.001C48.4645 49.1371 49.6398 50.5629 50.3386 53.5543C44.8692 53.1813 41.5333 57.7237 43.0543 62.8795C45.0297 69.5666 49.6966 77.0488 51.4498 83.7359C51.5584 84.1507 51.6177 84.5359 51.5683 84.9654C48.4546 83.3286 45.331 80.3224 41.5901 80.8157C37.2639 81.385 35.0614 86.4476 36.7083 90.2881C37.701 92.5997 42.642 96.2464 44.7853 97.9666C57.1612 107.893 69.7741 120.025 86.4613 109.947C89.6837 108.001 92.553 104.983 94.6568 101.9C100.981 106.001 109.941 106.799 116.991 104.214C121.433 102.587 125.75 98.9163 129.468 96.001C133.735 92.6562 140.266 87.8169 143.923 84.1089C147.365 80.6194 146.435 74.5335 141.753 72.7568C140.629 72.3298 138.121 72.2979 136.901 72.4672C135.827 72.6169 131.298 74.8402 130.831 74.4083L130.836 74.4132Z" fill="white"/>
</g>
<path d="M117.663 37.335C119.69 34.0799 123.215 33.0618 126.254 33.915C129.619 34.8597 132.317 38.0709 131.829 42.7383V42.7393C131.749 43.4925 131.446 44.2151 131.301 44.6494C131.258 44.7786 131.224 44.8931 131.198 44.9961C131.252 44.9891 131.306 44.9818 131.355 44.9766C131.493 44.9617 131.676 44.9461 131.867 44.9541L132.06 44.9707L132.061 44.9717C133.621 45.1893 135.48 45.9212 136.692 47.0996H136.691C137.914 48.2866 138.614 49.5795 138.914 50.9414C139.21 52.289 139.101 53.6419 138.806 54.9395C138.512 56.2325 138.024 57.5163 137.524 58.7314C137.141 59.6636 136.759 60.539 136.423 61.3926L136.105 62.2402C134.815 65.8699 133.497 69.4621 132.311 73.0908C132.609 72.9826 132.934 72.8588 133.273 72.7256C133.914 72.4739 134.622 72.1836 135.208 71.96C135.759 71.7493 136.359 71.5329 136.763 71.4766L137.035 71.4443C137.699 71.3745 138.566 71.3529 139.407 71.3896C140.341 71.4305 141.386 71.5481 142.108 71.8223L142.36 71.9219C147.582 74.1053 148.457 80.9372 144.635 84.8115C140.919 88.5795 134.302 93.4828 130.085 96.7881C126.438 99.6477 121.966 103.457 117.335 105.153C110.306 107.73 101.47 107.08 94.9321 103.242C92.8289 106.138 90.0763 108.932 86.978 110.803C78.3184 116.033 70.6445 115.5 63.6011 112.372C56.6628 109.29 50.2804 103.656 44.1597 98.7471V98.7461C43.1194 97.9112 41.3053 96.536 39.6587 95.1035C38.8311 94.3836 38.0228 93.6299 37.3511 92.8975C36.7756 92.2699 36.2535 91.6083 35.9204 90.96L35.7896 90.6826C34.8417 88.4724 35.0087 85.9417 36.0103 83.8867C37.017 81.8214 38.9092 80.1599 41.4595 79.8242L41.8657 79.7822C43.8831 79.6304 45.6921 80.3393 47.2935 81.2139C48.1484 81.6808 48.9786 82.2153 49.7603 82.7148C49.9074 82.8089 50.0547 82.8989 50.1987 82.9902C49.31 80.0385 47.8994 76.9203 46.4272 73.7266C44.8051 70.2073 43.108 66.5914 42.0952 63.1631V63.1621C41.2547 60.3128 41.738 57.5496 43.2808 55.5352C44.5896 53.8262 46.6046 52.7301 49.0317 52.5566C48.9599 52.3172 48.8893 52.0829 48.8169 51.8506C48.6313 51.2551 48.4428 50.6466 48.3218 50.0225C48.067 48.7081 48.1195 47.3672 48.8501 45.6162C51.2525 39.8582 58.9372 39.5324 62.2065 44.3652C62.4254 44.2309 62.6449 44.0929 62.8687 43.9492C63.3556 43.6366 63.8787 43.2982 64.4312 43.0127C65.5789 42.4196 66.8874 42.0359 68.5942 42.3232C70.9974 42.7281 72.5165 43.9766 73.6079 45.54C74.3803 46.6465 74.9675 47.9671 75.5122 49.2061C76.7299 48.2532 77.9869 47.6671 79.2456 47.4287C80.8797 47.1194 82.4462 47.4091 83.8257 48.1387C86.1182 49.3513 87.8642 51.7479 88.729 54.6162C88.9082 54.1597 89.0884 53.6551 89.269 53.1094C89.6707 51.8958 90.0324 50.6484 90.4644 49.3037C90.8822 48.0029 91.3419 46.6904 91.8823 45.5469C92.4159 44.4178 93.0714 43.3588 93.9253 42.6465L94.1479 42.4658C96.4768 40.6411 99.4537 40.0903 102.297 41.2402C102.552 41.343 102.879 41.5561 103.128 41.7207C103.429 41.9189 103.72 42.1198 104.032 42.3203C104.09 42.358 104.148 42.3917 104.203 42.4258C104.601 41.0437 105.234 39.6224 106.135 38.417C107.289 36.8732 108.927 35.6326 111.092 35.3857L111.405 35.3535C112.947 35.2167 114.158 35.4123 115.287 35.8975C116.116 36.2541 116.879 36.7608 117.663 37.335ZM57.0493 28.0371L57.3052 28.0889L57.4595 28.1406C57.5089 28.162 57.5565 28.1876 57.6021 28.2168L66.1685 33.7109L66.2515 33.7705C66.278 33.7916 66.3034 33.8142 66.3276 33.8379C67.3249 34.8131 67.2843 36.1518 66.6558 37.0596C66.025 37.9701 64.7885 38.4763 63.5063 37.916C63.4709 37.9005 63.4362 37.8828 63.4028 37.8633C60.8558 36.3767 58.4465 34.6821 56.061 33.0811C56.0556 33.0791 56.0479 33.0764 56.0376 33.0732C55.9902 33.0588 55.9289 33.045 55.8315 33.0254C55.7556 33.0101 55.6135 32.9833 55.4907 32.9492C55.4246 32.9309 55.3362 32.9035 55.2427 32.8613C55.153 32.8208 55.0179 32.7486 54.8882 32.624L54.8862 32.6221C54.4567 32.2074 54.2955 31.6412 54.2544 31.1738C54.2115 30.6863 54.2838 30.1632 54.4634 29.6895C54.6418 29.2191 54.9537 28.7272 55.4468 28.3926C55.9036 28.0826 56.4559 27.9494 57.0493 28.0371ZM71.7583 15.2314H71.7603C72.7162 15.2913 73.3175 15.8014 73.6909 16.3906C73.8614 16.6597 73.9854 16.9439 74.0815 17.1846C74.2009 17.4834 74.2389 17.606 74.3374 17.8438L74.3384 17.8447C75.077 19.6344 75.645 21.5634 76.2095 23.4209C76.7091 25.0649 77.2084 26.6612 77.8296 28.1523L78.103 28.7852L78.1362 28.8682C78.3233 29.4069 78.3035 30.0579 78.1919 30.5879C78.086 31.0909 77.8337 31.7845 77.2729 32.1973C77.2651 32.203 77.2565 32.2074 77.2485 32.2129C76.73 32.588 76.1541 32.7952 75.5483 32.7295C74.9454 32.664 74.4827 32.3463 74.1548 32.0166C73.5372 31.3956 73.1476 30.4692 72.9321 29.958L72.6431 29.2461C71.9892 27.5771 71.4779 25.8576 70.9692 24.1992C70.3817 22.2836 69.7944 20.4384 68.9819 18.7021C68.9494 18.6327 68.9255 18.5594 68.9097 18.4844C68.7234 17.6007 68.9084 16.7308 69.4819 16.0918C70.0496 15.4593 70.8851 15.1783 71.7583 15.2314ZM91.188 17.0518C91.9225 16.9706 92.6966 17.2076 93.2622 17.9023C93.2681 17.9096 93.2721 17.9184 93.2778 17.9258C93.9553 18.7786 93.8254 19.831 93.7417 20.3896C93.67 20.8699 93.4711 21.564 93.231 22.3037C92.984 23.0644 92.671 23.94 92.3452 24.8105C91.6963 26.5448 90.9792 28.2998 90.5962 29.1504L90.5972 29.1514C90.5592 29.2366 90.46 29.4704 90.3403 29.6807C90.28 29.7867 90.1939 29.9238 90.0825 30.0518C89.9896 30.1584 89.7769 30.3803 89.438 30.4727C88.2468 30.7973 87.0681 30.6612 86.3511 29.7314C85.7068 28.8957 85.7171 27.7486 85.9702 26.7412C85.9794 26.7048 85.9912 26.6689 86.0044 26.6338L89.1372 18.2783L89.188 18.165C89.2451 18.0561 89.3225 17.9584 89.4155 17.877C89.8794 17.4708 90.5019 17.1277 91.188 17.0518Z" fill="white" stroke="white" stroke-width="2" stroke-linejoin="round"/>
<path d="M130.836 74.414C131.303 74.8459 135.832 72.6226 136.906 72.4729C138.125 72.3036 140.632 72.3355 141.758 72.7625C146.439 74.5367 147.37 80.6251 143.928 84.1147C140.271 87.8202 133.738 92.6594 129.473 96.0067C125.755 98.922 121.438 102.593 116.996 104.22C109.946 106.804 100.985 106.007 94.6617 101.906C92.5579 104.986 89.6886 108.004 86.4662 109.953C69.779 120.031 57.1661 107.896 44.7902 97.9723C42.6468 96.2545 37.7034 92.6079 36.7132 90.2938C35.0662 86.4533 37.2688 81.3883 41.5949 80.8214C45.3359 80.3306 48.4595 83.3343 51.5732 84.9711C51.6226 84.5416 51.5633 84.1564 51.4547 83.7416C49.7015 77.0521 45.0321 69.5699 43.0592 62.8852C41.5382 57.7318 44.8716 53.187 50.3435 53.5601C49.6447 50.5662 48.4693 49.1404 49.7781 46.0067C51.9757 40.7453 59.3365 40.684 61.8502 45.7294C64.0824 44.5735 65.5492 42.8263 68.4333 43.3147C72.6137 44.0214 73.6385 47.5748 75.157 50.8582C80.8758 45.241 86.9897 49.7196 88.1453 56.4827L88.9577 56.5196C90.7948 53.2803 91.8196 45.7147 94.5703 43.4202C96.6716 41.668 99.3607 41.1331 101.929 42.1735C102.492 42.4018 104.546 44.0656 104.912 43.749C105.563 40.5466 107.571 36.7993 111.211 36.3846C114.305 36.0312 115.682 37.0864 117.999 38.8386C121.312 31.5699 131.713 34.2938 130.839 42.6398C130.71 43.8594 129.893 44.8435 130.216 45.9674C130.382 46.2472 131.412 45.8962 131.928 45.9674C133.335 46.1637 134.977 46.8288 135.999 47.8226C140.365 52.0631 136.809 57.295 135.167 61.911C133.691 66.0656 132.162 70.2128 130.841 74.4189L130.836 74.414ZM134.214 50.441C132.1 47.9625 128.881 49.4913 127.703 52.0386C125.55 56.7012 124.505 62.6693 122.238 67.2214C120.888 69.9355 118.729 68.6913 119.337 66.0558L128.058 42.5785C128.851 38.0778 123.589 36.0877 121.152 39.8864L112.421 64.338C111.216 65.8177 109.507 64.9834 109.354 63.268L116.218 43.5527C116.063 39.4791 111.253 37.8545 109.094 41.6459C106.196 48.2864 104.363 55.5453 101.637 62.2104C101.378 62.8459 100.901 64.3502 100.23 64.5048C98.7162 64.8533 98.0569 63.6582 98.2495 62.2889C98.6742 59.2754 101.469 54.0116 102.418 50.7159C102.902 49.0349 103.447 47.6705 102.079 46.1834C101.045 45.0619 99.7113 44.7257 98.2223 45.0742C96.2642 45.5331 95.8247 47.3024 95.1654 48.9048C93.4221 53.1453 92.2788 57.7294 90.5825 61.9993C94.7555 73.9748 101.536 83.3073 97.3779 96.4999C97.1457 97.2337 96.5581 98.1122 96.2963 98.8778C96.242 99.4668 98.5508 100.436 99.1063 100.672C114.448 107.17 123.542 96.6325 134.165 87.9183C136.871 85.6999 139.745 83.6803 142.308 81.2754C143.38 79.5453 143 76.8508 141.187 75.7834C139.563 74.8239 137.953 75.2459 136.266 75.7637C132.975 76.7748 126.335 80.4901 123.478 80.7453C122.374 80.8435 120.354 79.7392 119.085 79.5895C116.769 79.3147 114.584 79.8005 112.581 80.9392C111.793 81.3883 109.438 83.5723 108.927 83.7048C108.287 83.8742 107.117 82.8607 106.993 82.2889C106.754 81.1748 110.253 78.8778 111.201 78.338C114.569 76.4214 117.275 76.2177 121.018 76.9294C121.821 77.0815 122.426 77.6582 123.298 77.6214C123.816 77.5993 126.579 76.4386 126.814 76.0631L134.975 53.8668C135.227 52.8165 134.913 51.2582 134.214 50.441ZM70.2753 70.4214C69.3963 71.2116 68.3666 70.4263 67.932 69.5674L59.0822 46.9515C56.8204 43.5012 52.1164 45.6926 52.3658 49.4472C54.6203 56.9122 58.7439 64.3895 61.07 71.722C61.7539 73.8766 60.9045 75.5576 58.7612 74.0165L52.8572 59.0275C50.4176 55.4815 45.5556 56.6275 46.131 61.295C46.373 63.2582 49.0422 69.0177 49.9237 71.268C51.9485 76.441 55.0721 82.5097 56.6253 87.6754C57.2105 89.6214 57.3142 91.0447 54.7141 90.5539C52.0769 89.3809 45.8618 84.2742 43.2963 84.2128C42.0592 84.1834 41.0665 84.5024 40.3751 85.5281C39.6442 86.6104 39.4813 87.9257 39.7702 89.2116C40.0591 90.4975 43.916 93.322 45.1013 94.2815C51.6473 99.5748 62.9737 109.764 71.2334 110.461C88.3379 111.904 99.2199 95.4619 94.2073 79.776C91.4418 71.1232 86.8391 62.4852 84.1081 53.7392C82.8019 51.7613 80.7301 50.8778 78.6066 52.3331C76.8855 53.5134 76.9942 55.3367 77.5127 57.1036C78.651 60.9736 80.9795 64.8582 82.024 68.8189C81.8833 71.3441 79.9721 71.2877 78.9301 69.1895C75.8929 63.0668 74.199 55.1576 71.0828 49.0128C68.9987 44.9024 63.1886 46.8091 64.2158 51.6656C65.9492 56.9441 68.7864 62.3404 70.4062 67.5993C70.6704 68.4582 71.0655 69.7147 70.2704 70.4288L70.2753 70.4214Z" fill="black"/>
<path d="M76.6795 31.3938C75.1461 32.5226 74.3115 30.6601 73.8522 29.5729C72.3065 25.9141 71.5805 21.8969 69.8866 18.2821C69.6249 17.0429 70.4447 16.157 71.6966 16.2331C72.8349 16.3042 73.0497 17.3521 73.4127 18.2306C74.8449 21.6981 75.6252 25.7275 77.1907 29.1999C77.4055 29.8159 77.2055 31.0085 76.6795 31.3963V31.3938Z" fill="black"/>
<path d="M55.5815 31.9036C54.8136 31.1649 55.3692 28.6349 57.0631 29.0594L65.6289 34.5539C66.8537 35.7514 65.5252 37.7073 63.9078 37.0005C61.3892 35.5306 59.0163 33.8594 56.5989 32.2373C56.2877 32.0287 55.7297 32.0459 55.5815 31.9036Z" fill="black"/>
<path d="M92.4883 18.5319C92.8834 19.0153 92.8414 19.6607 92.755 20.2374C92.5254 21.7957 90.4265 27.0963 89.6857 28.7404C89.5894 28.9564 89.382 29.4472 89.1771 29.5036C87.1868 30.046 86.493 28.7724 86.9424 26.9809L90.0759 18.6251C90.7821 18.0067 91.8266 17.7171 92.4883 18.5294V18.5319Z" fill="black"/>
<path d="M70.2757 70.4204C71.0708 69.7063 70.6757 68.4499 70.4115 67.591C68.7917 62.3345 65.957 56.9382 64.2211 51.6572C63.1964 46.8008 69.0065 44.8916 71.0881 49.0045C74.2018 55.1492 75.8982 63.0584 78.9354 69.1811C79.9774 71.2818 81.8861 71.3358 82.0294 68.8106C80.9849 64.8499 78.6564 60.9652 77.518 57.0953C76.997 55.3284 76.8908 53.5051 78.6119 52.3247C80.7355 50.8695 82.8072 51.7529 84.1134 53.7308C86.8419 62.4793 91.4471 71.1149 94.2127 79.7677C99.2252 95.456 88.3432 111.898 71.2387 110.452C62.9791 109.755 51.6526 99.564 45.1066 94.2732C43.9214 93.3161 40.052 90.4425 39.7755 89.2032C39.4989 87.964 39.6496 86.602 40.3805 85.5198C41.0718 84.4965 42.0645 84.175 43.3016 84.2045C45.8671 84.2634 52.0823 89.3726 54.7194 90.5456C57.3195 91.0339 57.2158 89.6131 56.6306 87.667C55.0775 82.5039 51.9539 76.4327 49.9291 71.2597C49.05 69.0118 46.3783 63.2523 46.1363 61.2867C45.561 56.6216 50.4204 55.4732 52.8625 59.0192L58.7665 74.0081C60.9098 75.5492 61.7593 73.8683 61.0753 71.7137C58.7492 64.3836 54.6256 56.9038 52.3712 49.4388C52.1218 45.6842 56.8257 43.4928 59.0875 46.9431L67.9373 69.5591C68.3719 70.418 69.4016 71.2032 70.2807 70.413L70.2757 70.4204Z" fill="#4E8CFF"/>
<path d="M134.215 50.4398C134.914 51.2594 135.227 52.8152 134.975 53.8655L126.814 76.0619C126.58 76.4373 123.817 77.6005 123.298 77.6201C122.427 77.6545 121.822 77.0803 121.019 76.9281C117.276 76.2165 114.569 76.4201 111.201 78.3367C110.253 78.8766 106.752 81.1711 106.994 82.2876C107.117 82.8594 108.288 83.8729 108.927 83.7036C109.436 83.5686 111.794 81.3846 112.582 80.9379C114.582 79.7993 116.767 79.3134 119.086 79.5882C120.355 79.7379 122.375 80.8422 123.478 80.7441C126.335 80.4913 132.973 76.776 136.267 75.7625C137.953 75.2447 139.561 74.8226 141.188 75.7821C143 76.8496 143.381 79.5441 142.309 81.2741C139.746 83.679 136.872 85.6987 134.165 87.9171C123.543 96.6312 114.448 107.169 99.1069 100.67C98.5513 100.435 96.2425 99.4655 96.2969 98.8766C96.5586 98.1109 97.1463 97.2324 97.3784 96.4987C101.537 83.306 94.756 73.9711 90.583 61.9981C92.2794 57.7281 93.4226 53.1441 95.1659 48.9036C95.8252 47.3011 96.2648 45.5293 98.2229 45.0729C99.7094 44.7244 101.045 45.0606 102.08 46.1821C103.45 47.6668 102.902 49.0336 102.418 50.7146C101.47 54.0079 98.6748 59.2741 98.25 62.2876C98.0574 63.6594 98.7167 64.852 100.23 64.5036C100.902 64.349 101.379 62.8447 101.638 62.2091C104.364 55.5441 106.199 48.2852 109.095 41.6447C111.253 37.8533 116.063 39.4754 116.219 43.5514L109.354 63.2668C109.507 64.9821 111.216 65.8165 112.421 64.3367L121.152 39.8852C123.59 36.0889 128.852 38.0766 128.059 42.5772L119.337 66.0545C118.73 68.6901 120.888 69.9343 122.239 67.2201C124.506 62.668 125.55 56.6999 127.703 52.0373C128.879 49.4901 132.101 47.9612 134.215 50.4398Z" fill="white"/>
<path d="M10.2207 1.06641C11.0657 2.00408 11.8609 3.14103 12.7344 4.2959C13.8136 5.72286 15.0093 7.15934 16.5195 8.01855C18.0221 8.8734 19.9032 9.25533 21.7803 9.47656C22.7236 9.58775 23.6809 9.65952 24.6025 9.72656C25.1621 9.76726 25.7073 9.80687 26.2324 9.85156C25.3584 10.6767 24.3111 11.3365 23.2188 12.043C21.8558 12.9245 20.4299 13.88 19.4297 15.3193C18.1904 17.1018 17.7491 18.8747 17.5205 20.6504C17.4073 21.5296 17.3439 22.427 17.2656 23.3105C17.2166 23.8638 17.1581 24.4175 17.0801 24.9766C16.2397 23.9993 15.5388 23.1205 14.8818 22.3184C14.0566 21.3108 13.2947 20.4209 12.4238 19.6611C10.6541 18.1172 8.48915 17.1541 4.52539 16.6123C4.1042 16.5548 3.66753 16.567 3.25879 16.5908C2.83299 16.6156 2.45442 16.6514 2.07227 16.6562C1.56217 16.6627 1.14714 16.6068 0.80957 16.4336C1.29303 16.0754 1.82624 15.7203 2.3877 15.3574C3.14047 14.8709 3.95057 14.3658 4.72168 13.8369C6.25722 12.7838 7.74804 11.5666 8.53418 9.99023C9.33837 8.37664 9.64549 6.68327 9.83008 5.01465C9.98018 3.65763 10.0491 2.35786 10.2207 1.06641Z" fill="white" stroke="black"/>
<path d="M6.73096 46.0137C6.94472 46.227 7.18976 46.522 7.44775 46.8613C7.77645 47.2937 8.10086 47.7617 8.3833 48.1631C8.52272 48.3612 8.65392 48.5456 8.76709 48.6953C8.87223 48.8344 8.98834 48.9795 9.09424 49.0732L9.09521 49.0742C10.2476 50.0899 11.5758 50.51 12.9155 50.7344C13.5826 50.8461 14.2639 50.9111 14.9292 50.9736C15.1961 50.9987 15.4609 51.0246 15.7231 51.0518C14.2809 52.1742 12.966 53.228 12.0513 54.4902C11.018 55.9159 10.5014 57.5913 10.7358 59.8965C10.5098 59.6783 10.2493 59.3739 9.979 59.0244C9.64355 58.5906 9.31527 58.1211 9.03857 57.7275C8.90186 57.5331 8.77559 57.354 8.67041 57.2119C8.59951 57.1161 8.52 57.0127 8.44482 56.9307L8.37158 56.8564C7.16086 55.7493 5.85907 55.3757 4.54639 55.1934C3.90153 55.1038 3.23024 55.0577 2.58447 54.998C2.30511 54.9722 2.02635 54.9413 1.74756 54.9053C3.23027 53.7987 4.52109 52.7093 5.41748 51.3965C6.41049 49.9421 6.90269 48.2447 6.73096 46.0137Z" fill="white" stroke="black"/>
<defs>
<filter id="filter0_d_2650_1609" x="36.1616" y="16.2246" width="110.833" height="98.5098" filterUnits="userSpaceOnUse" color-interpolation-filters="sRGB">
<feFlood flood-opacity="0" result="BackgroundImageFix"/>
<feColorMatrix in="SourceAlpha" type="matrix" values="0 0 0 0 0 0 0 0 0 0 0 0 0 0 0 0 0 0 127 0" result="hardAlpha"/>
<feOffset dx="1" dy="1"/>
<feComposite in2="hardAlpha" operator="out"/>
<feColorMatrix type="matrix" values="0 0 0 0 0 0 0 0 0 0 0 0 0 0 0 0 0 0 0.17 0"/>
<feBlend mode="normal" in2="BackgroundImageFix" result="effect1_dropShadow_2650_1609"/>
<feBlend mode="normal" in="SourceGraphic" in2="effect1_dropShadow_2650_1609" result="shape"/>
</filter>
</defs>
</svg>
