<svg width="95" height="116" viewBox="0 0 95 116" fill="none" xmlns="http://www.w3.org/2000/svg">
<path d="M82.5194 10.5201C69.9537 -1.70599 49.458 -3.46334 34.7878 6.24515C24.2829 13.197 17.9739 25.6277 18.6079 38.1682C15.2725 38.2177 11.5778 37.5738 8.41453 36.5056C7.04859 36.0447 2.43882 34.4575 3.69147 32.5795C4.94413 30.7016 12.7367 29.3427 14.9893 28.6686C16.4185 26.5882 15.3074 25.7461 13.0526 25.8947C8.85459 26.1704 -2.97265 29.3534 0.695992 35.5192C3.32766 39.9406 14.2356 41.5601 19.0414 41.6118L19.6928 45.2729L8.25332 43.1021C6.85034 43.2205 6.7937 45.1739 7.72175 46.0159C8.99837 47.1724 15.4926 48.232 17.4336 48.4775C18.5186 48.6153 19.6645 48.4538 20.7407 48.7618C25.0585 59.4286 34.5024 68.3575 45.8199 71.3489L41.6938 87.0552C38.5894 84.4644 35.3412 81.2555 31.0103 83.491C28.0801 85.0028 27.4091 88.3043 29.0191 91.0824C30.8294 94.203 35.2693 94.9546 36.3585 98.4715C36.9729 100.451 37.084 102.488 37.8291 104.555C41.5631 114.906 55.7605 117.746 64.8537 112.644C71.9601 108.658 74.2127 102.107 75.79 94.5971C76.4806 91.315 77.4565 87.1263 73.4328 85.5089C72.1649 85.0006 70.69 85.3366 70.0147 85.0114C69.6748 84.8477 69.0365 83.4263 68.6052 82.959C67.2174 81.4601 64.9888 81.1327 63.0564 81.669C62.2744 79.0739 59.1198 77.4716 56.51 78.2254L57.8171 73.2204C58.0153 72.7767 61.2156 72.7035 62.0042 72.57C91.9655 67.5111 104.601 32.0131 82.5129 10.5222L82.5194 10.5201Z" fill="white"/>
<path d="M82.5197 10.5213C104.608 32.0123 91.9724 67.5103 62.0111 72.5691C61.2224 72.7026 58.0222 72.7758 57.8239 73.2195L56.5168 78.2245C59.1267 77.4707 62.279 79.073 63.0633 81.6681C64.9935 81.134 67.2243 81.4614 68.612 82.9581C69.0455 83.4255 69.6817 84.8468 70.0215 85.0105C70.6969 85.3357 72.1717 84.9976 73.4396 85.508C77.4634 87.1232 76.4874 91.3141 75.7968 94.5963C74.2195 102.106 71.9648 108.655 64.8606 112.644C55.7674 117.745 41.5699 114.905 37.8359 104.555C37.0908 102.487 36.9775 100.45 36.3654 98.4706C35.2761 94.9559 30.8363 94.2021 29.0259 91.0816C27.4138 88.3034 28.087 85.0019 31.0171 83.4901C35.348 81.2546 38.5984 84.4635 41.7006 87.0543L45.8267 71.348C34.5093 68.3566 25.0653 59.4277 20.7475 48.7609C19.6713 48.4529 18.5254 48.6145 17.4405 48.4766C15.5016 48.2333 9.00521 47.1715 7.72859 46.015C6.80054 45.173 6.855 43.2175 8.26015 43.1012L19.6996 45.272L19.0482 41.6109C14.2424 41.5614 3.33231 39.9397 0.702828 35.5183C-2.96582 29.3525 8.86143 26.1717 13.0595 25.8938C15.3142 25.7452 16.4253 26.5873 14.9962 28.6677C12.7436 29.3418 4.92046 30.7481 3.69831 32.5787C2.47615 34.4092 7.05325 36.0417 8.42136 36.5047C11.5846 37.5729 15.2794 38.2168 18.6147 38.1673C17.9786 25.6246 24.2876 13.1961 34.7947 6.24427C49.4671 -3.46637 69.9627 -1.70687 82.5263 10.517L82.5197 10.5213ZM52.8089 68.5354H60.7606C65.1982 68.5354 73.3481 64.142 76.775 61.3229C79.936 58.7235 86.7156 50.4946 87.0162 46.4587C87.2079 43.883 85.9204 45.4099 84.9597 45.2785C83.8574 45.1278 82.9424 43.5319 82.6679 42.5736C81.6265 38.934 82.5524 33.2958 84.2059 29.906C85.0054 28.2671 87.5609 26.0101 85.7091 24.3885C85.3649 25.896 83.3214 25.0647 82.6505 24.2248C81.8204 23.1846 82.1755 22.1466 81.9882 21.0633C81.7115 19.4696 79.6877 18.4962 78.8576 17.2665C78.0886 16.1272 78.1278 14.4517 77.3871 13.1208C75.7227 10.1208 68.4617 5.80494 65.0828 5.73387C61.9152 5.6671 61.2747 9.86234 63.3944 9.96356C64.292 10.0066 64.4706 8.54864 66.3725 8.93198C68.1676 9.29379 70.1566 13.3727 68.3985 14.4969C67.2766 15.2162 64.719 13.9133 63.6885 15.6556C63.3378 16.25 63.5818 17.064 62.9151 17.4754C62.3095 17.8501 60.229 17.9362 59.2966 18.2054C55.6367 19.2586 53.7893 21.4079 52.5235 24.8623C52.212 25.7086 52.2643 27.817 50.7873 27.5866C49.613 27.4014 48.1752 24.1042 45.8507 23.6239C43.0949 23.0554 40.3368 24.7524 40.0188 27.5715C39.7748 29.7488 40.0907 31.0474 42.5829 30.537C43.5589 30.3367 46.1056 28.3748 46.8202 29.555C47.502 31.8206 44.6089 35.4774 47.2864 37.0625C49.3843 38.3051 51.6957 36.9806 53.9548 37.3618C55.3273 37.5923 63.7757 40.6999 64.8627 41.4386C66.2984 42.4121 66.4008 43.9433 67.5097 44.8521C69.7971 46.7279 75.897 46.9002 73.2479 51.5951C71.9255 53.9382 63.658 61.1873 61.1527 62.4665C59.9001 63.1061 58.203 63.1987 57.2706 63.7974C56.6845 64.1722 53.6237 67.254 53.1314 67.8893C52.9636 68.1068 52.7109 68.1607 52.8068 68.5375L52.8089 68.5354ZM23.072 38.6002H30.6968C30.9757 38.6002 32.078 39.6188 32.1194 40.0086C32.1826 40.6073 31.1718 41.8306 30.6968 41.8306H22.9631L23.6253 45.4809C24.0175 45.8578 31.8711 44.8952 33.3154 45.916C34.6814 46.883 33.4897 48.72 32.6575 48.72H25.1416C25.7995 51.089 27.4704 53.613 28.9736 55.5922C31.9168 59.4687 36.4765 63.2203 40.8989 65.3394C41.7224 65.7357 46.672 67.7278 47.1578 67.366C48.0162 64.4457 49.0379 61.4737 49.7437 58.4995C49.9594 57.595 50.5084 55.9411 50.4104 55.0925C50.1054 52.4479 44.7004 51.4314 44.9575 46.8808C45.1056 44.262 48.1033 43.0711 48.0292 40.463C45.4782 39.0266 41.5873 37.9735 42.1385 34.2886C39.3391 34.8809 36.4721 33.8945 35.4983 31.0539C34.6901 28.6892 35.873 27.3174 35.5571 25.6225C35.3175 24.3389 33.274 23.7101 32.9995 22.1121C32.0955 16.8422 39.7966 11.5766 41.4827 6.93989C34.945 9.54361 29.9888 14.7597 26.6339 20.7941C25.098 23.555 23.5709 27.4724 23.0241 30.5779C22.7626 32.0618 22.3749 36.0244 22.5208 37.4286C22.56 37.8141 22.621 38.4731 23.0785 38.6002H23.072ZM54.5539 72.8448L49.2187 72.4033L44.2059 90.289C43.7201 91.3077 42.8748 91.9301 41.7028 91.4671C39.8663 90.1943 36.6791 86.4621 34.5703 86.0292C33.3481 85.7772 31.2959 86.6494 31.2633 88.0213C31.211 90.1921 35.9319 92.4513 37.3501 93.8339C40.1974 96.6077 39.6898 100.788 41.2235 104.219C44.1885 110.843 53.1619 113.191 59.7781 111.287C67.782 108.982 70.662 102.47 72.3525 95.0744C72.7098 93.5087 74.1063 89.2661 72.1935 88.4671C68.893 87.0866 68.9257 94.1311 67.8103 95.5395C67.1153 96.4182 65.7647 96.3536 65.2854 95.2962C64.0545 92.5783 68.368 88.1268 66.4988 85.4822C65.3529 83.8626 63.5295 84.7262 62.7866 86.2704C61.9043 88.1053 61.6385 91.5833 60.7431 93.0801C60.0351 94.2646 58.3337 94.2021 57.9132 92.8906C57.3337 91.0837 60.1005 85.6997 60.2051 83.5375C59.9262 81.8016 58.2923 80.2726 56.519 81.3688C54.2707 82.7578 53.9919 88.4003 52.9026 90.7154C51.8634 91.8805 50.3973 91.5101 50.1991 89.9531L54.5474 72.8512L54.5539 72.8448Z" fill="black"/>
<path d="M52.8084 68.5349C52.7126 68.158 52.9653 68.1042 53.133 67.8867C53.6254 67.2514 56.6862 64.1696 57.2722 63.7948C58.2046 63.1961 59.9017 63.1035 61.1544 62.4639C63.6597 61.1846 71.9272 53.9356 73.2496 51.5925C75.8965 46.8976 69.7988 46.7253 67.5113 44.8495C66.4024 43.9407 66.3022 42.4094 64.8644 41.436C63.7773 40.6973 55.329 37.5897 53.9565 37.3592C51.6952 36.9802 49.3859 38.3025 47.288 37.0599C44.6106 35.4748 47.5037 31.818 46.8218 29.5524C46.1072 28.3722 43.5605 30.3341 42.5846 30.5344C40.0923 31.0448 39.7743 29.744 40.0204 27.5689C40.3385 24.7477 43.0965 23.0506 45.8524 23.6213C48.1769 24.1016 49.6169 27.3988 50.7889 27.584C52.266 27.8166 52.2159 25.7082 52.5252 24.8596C53.7909 21.4053 55.6405 19.2559 59.2983 18.2028C60.2307 17.9336 62.3112 17.8496 62.9168 17.4728C63.5812 17.0614 63.3373 16.2473 63.6902 15.653C64.7206 13.9107 67.2782 15.2136 68.4002 14.4943C70.1561 13.3701 68.1671 9.29118 66.3741 8.92937C64.4723 8.54388 64.2936 10.004 63.3961 9.96095C61.2764 9.85973 61.9168 5.6645 65.0844 5.73126C68.4633 5.80233 75.7244 10.1182 77.3888 13.1182C78.1273 14.4491 78.0881 16.1246 78.8593 17.2639C79.6893 18.4914 81.7132 19.467 81.9898 21.0607C82.1772 22.1439 81.8221 23.182 82.6521 24.2222C83.3231 25.0621 85.3666 25.8934 85.7108 24.3859C87.5625 26.0075 85.0093 28.2645 84.2076 29.9034C82.5519 33.2932 81.6282 38.9314 82.6695 42.571C82.944 43.5293 83.8612 45.1273 84.9613 45.2759C85.9221 45.4073 87.2096 43.8804 87.0179 46.4561C86.7172 50.4941 79.9377 58.7209 76.7766 61.3203C73.3476 64.1394 65.1999 68.5328 60.7622 68.5328H52.8106L52.8084 68.5349ZM57.7885 34.9063C57.8582 34.2989 57.9389 33.6356 57.6164 33.0929C57.2265 32.4339 51.8825 30.6335 50.9567 30.612C48.8871 30.5646 47.6366 32.3241 49.9153 33.3815C50.9479 33.8596 55.3268 35.0053 56.4683 35.1044C56.9607 35.1475 57.3419 35.1561 57.7864 34.9063H57.7885Z" fill="#F3C2FF"/>
<path d="M54.5536 72.8444L50.2053 89.9463C50.4035 91.5033 51.8697 91.8716 52.9088 90.7087C53.9981 88.3935 54.2748 82.7511 56.5252 81.362C58.2985 80.2658 59.9324 81.797 60.2113 83.5307C60.1067 85.6929 57.34 91.0769 57.9194 92.8838C58.3399 94.1954 60.0413 94.2578 60.7494 93.0733C61.6447 91.5766 61.9105 88.0985 62.7928 86.2636C63.5357 84.7216 65.3591 83.8559 66.505 85.4754C68.3742 88.12 64.0607 92.5737 65.2916 95.2894C65.7709 96.3468 67.1194 96.4114 67.8165 95.5327C68.9319 94.1264 68.8992 87.082 72.1997 88.4603C74.1103 89.2593 72.716 93.5019 72.3588 95.0676C70.6704 102.463 67.7904 108.976 59.7843 111.28C53.1681 113.186 44.1947 110.838 41.2297 104.212C39.6939 100.781 40.2036 96.6009 37.3563 93.8271C35.9359 92.4445 31.2172 90.1853 31.2695 88.0145C31.3022 86.6448 33.3543 85.7726 34.5765 86.0224C36.6853 86.4553 39.8725 90.1875 41.709 91.4603C42.881 91.9233 43.7263 91.3009 44.2121 90.2822L49.2249 72.3965L54.5602 72.838L54.5536 72.8444Z" fill="white"/>
<path d="M23.0715 38.5997C22.6162 38.4727 22.5552 37.8158 22.5138 37.4282C22.3701 36.0262 22.7557 32.0613 23.0171 30.5775C23.5639 27.472 25.0932 23.5546 26.6269 20.7936C29.9818 14.7592 34.938 9.54533 41.4758 6.93945C39.7896 11.5762 32.0907 16.8418 32.9926 22.1117C33.2671 23.7118 35.3105 24.3385 35.5502 25.622C35.8682 27.3169 34.6831 28.6888 35.4914 31.0535C36.463 33.8941 39.3299 34.8804 42.1315 34.2882C41.5803 37.973 45.4712 39.0261 48.0223 40.4626C48.0963 43.0728 45.0987 44.2637 44.9505 46.8804C44.6956 51.4309 50.1006 52.4475 50.4034 55.0921C50.5014 55.9406 49.9524 57.5946 49.7368 58.4991C49.0309 61.4732 48.0092 64.4452 47.1508 67.3655C46.6629 67.7273 41.7154 65.7331 40.8919 65.339C36.4717 63.2177 31.912 59.4682 28.9667 55.5917C27.4635 53.6126 25.7925 51.0864 25.1346 48.7195H32.6505C33.4827 48.7195 34.6744 46.8825 33.3085 45.9155C31.8663 44.8947 24.0105 45.8552 23.6184 45.4805L22.9561 41.8301H30.6899C31.1648 41.8301 32.1734 40.6069 32.1124 40.0082C32.0711 39.6184 30.9687 38.5997 30.6899 38.5997H23.065H23.0715Z" fill="#F3C2FF"/>
<path d="M57.7887 34.9046C57.3443 35.1544 56.9631 35.1458 56.4707 35.1027C55.3292 35.0058 50.9481 33.858 49.9177 33.3799C47.639 32.3246 48.8873 30.5629 50.959 30.6103C51.8827 30.6318 57.2267 32.4323 57.6188 33.0913C57.9412 33.634 57.8606 34.2951 57.7909 34.9046H57.7887Z" fill="black"/>
<path d="M17.8821 85.2031C18.0525 85.136 18.2066 85.1718 18.2649 85.1875C18.3984 85.2234 18.5217 85.2984 18.5803 85.335C18.6169 85.3578 18.6498 85.3794 18.6721 85.3945C18.708 85.4187 18.6978 85.4122 18.6838 85.4043L18.842 85.4941L18.9055 85.6641L19.7043 87.8125L21.1682 88.2666L21.2278 88.2852L21.2815 88.3184C21.3664 88.3705 21.426 88.4373 21.4573 88.4746C21.4947 88.5192 21.5287 88.5671 21.5579 88.6123C21.6165 88.7032 21.6733 88.8094 21.7209 88.9121C21.7679 89.0133 21.8134 89.1276 21.843 89.2363C21.8576 89.2899 21.8729 89.3573 21.8782 89.4287C21.8822 89.4838 21.8873 89.6209 21.8137 89.7617C21.7632 89.8584 21.6944 89.922 21.6565 89.9541C21.6127 89.9912 21.5666 90.0222 21.5266 90.0469C21.4463 90.0963 21.3516 90.1442 21.2581 90.1875C21.0693 90.2748 20.8326 90.3692 20.6038 90.458C20.368 90.5495 20.1402 90.6348 19.9475 90.7129C19.8523 90.7515 19.7723 90.7862 19.7092 90.8154C19.7037 90.818 19.6978 90.8198 19.6926 90.8223C19.5873 91.0209 19.4939 91.3098 19.3811 91.6758C19.3205 91.8724 19.2548 92.0862 19.179 92.2822C19.1042 92.4754 19.0084 92.6835 18.8772 92.8574C18.7596 93.013 18.5889 93.1648 18.3538 93.2109C18.1088 93.2589 17.9054 93.1708 17.7727 93.0762C17.5392 92.9097 17.3982 92.6367 17.3381 92.5088C17.1878 92.1886 17.0921 91.8258 17.009 91.5215C16.9405 91.2705 16.8784 91.0527 16.803 90.8633L15.012 90.084L14.9612 90.0615L14.9163 90.0283C14.6518 89.8348 14.5361 89.5354 14.5872 89.2383C14.6335 88.9691 14.8061 88.7515 15.012 88.6191H15.0129C15.164 88.522 15.3537 88.4414 15.5266 88.375C15.7047 88.3067 15.9083 88.2371 16.0872 88.1738C16.2736 88.1078 16.4396 88.0458 16.5754 87.9844C16.6425 87.9541 16.6958 87.9273 16.7356 87.9033C16.755 87.8916 16.7694 87.8815 16.7795 87.874C16.7841 87.8706 16.7872 87.867 16.7893 87.8652C16.7952 87.8558 16.8046 87.8381 16.8186 87.8105C16.8476 87.7534 16.8813 87.6757 16.9192 87.5781C16.9959 87.3805 17.074 87.1448 17.1614 86.8916C17.2449 86.6496 17.3379 86.3886 17.4358 86.1787C17.4722 86.1006 17.5163 86.02 17.5647 85.9434C17.5443 85.8689 17.524 85.7719 17.5354 85.666C17.5533 85.5006 17.6513 85.2943 17.8821 85.2031Z" fill="black" stroke="black"/>
<path d="M18.0869 85.1846C18.1255 85.1895 18.1891 85.201 18.2598 85.2295L18.332 85.2637L18.4824 85.3496L18.5479 85.5098L19.3555 87.4883L21.1328 88.2539L21.166 88.2686L21.1963 88.2871C21.4532 88.4447 21.5241 88.7198 21.5439 88.8613C21.5656 89.0159 21.5576 89.2282 21.4619 89.4111C21.4113 89.5077 21.3425 89.5715 21.3047 89.6035C21.2608 89.6407 21.2148 89.6716 21.1748 89.6963C21.0945 89.7457 20.9998 89.7927 20.9062 89.8359C20.7175 89.9232 20.4808 90.0176 20.252 90.1064C20.0162 90.198 19.7884 90.2842 19.5957 90.3623C19.5007 90.4008 19.4204 90.4347 19.3574 90.4639C19.3518 90.4665 19.346 90.4692 19.3408 90.4717C19.2356 90.6703 19.142 90.9585 19.0293 91.3242C18.9686 91.5211 18.9031 91.7354 18.8271 91.9316C18.7524 92.1247 18.6566 92.332 18.5254 92.5059C18.4139 92.6534 18.2344 92.825 17.9727 92.8555C17.6977 92.8874 17.4974 92.7464 17.3916 92.6436C17.2858 92.5407 17.2113 92.4179 17.1631 92.3301C17.1131 92.2389 17.0696 92.1433 17.0449 92.0908C16.9023 91.7869 16.7936 91.4578 16.6953 91.166C16.6151 90.9279 16.5405 90.7107 16.4551 90.5127L14.6602 89.7324L14.6094 89.71L14.5645 89.6777C14.3 89.4843 14.1844 89.1848 14.2354 88.8877C14.2817 88.6184 14.4542 88.4009 14.6602 88.2686H14.6592C14.8105 88.171 15.0012 88.09 15.1748 88.0234C15.3529 87.9551 15.5565 87.8865 15.7354 87.8232C15.9217 87.7573 16.0878 87.6952 16.2236 87.6338C16.2908 87.6034 16.3439 87.5758 16.3838 87.5518C16.4033 87.54 16.4176 87.53 16.4277 87.5225C16.4334 87.5182 16.4365 87.5144 16.4385 87.5127C16.4445 87.5029 16.4535 87.4852 16.4668 87.459C16.4958 87.4019 16.5295 87.325 16.5674 87.2275C16.6442 87.0299 16.7222 86.7944 16.8096 86.541C16.8931 86.2989 16.986 86.0372 17.084 85.8271C17.1326 85.7229 17.1914 85.6117 17.2617 85.5156C17.3209 85.4348 17.4441 85.2858 17.6455 85.2236L17.6465 85.2227C17.7329 85.1962 17.8352 85.1822 17.9238 85.1787C17.9706 85.1769 18.0273 85.1769 18.0869 85.1846Z" fill="white" stroke="black"/>
<path d="M89.4568 67.8037C89.6307 67.735 89.7898 67.771 89.8533 67.7881C89.997 67.8268 90.1332 67.9087 90.2029 67.9521C90.2448 67.9783 90.282 68.0037 90.3083 68.0215L90.3298 68.0371L90.488 68.127L90.5505 68.2969L91.5173 70.8965L93.3035 71.4502L93.363 71.4688L93.4167 71.502C93.5047 71.556 93.5682 71.6261 93.6033 71.668C93.6445 71.7171 93.6823 71.7707 93.7156 71.8223C93.7825 71.926 93.8479 72.048 93.9031 72.167C93.9576 72.2845 94.0093 72.4154 94.0427 72.5381C94.0592 72.5986 94.0761 72.6724 94.0818 72.749C94.0862 72.8094 94.0915 72.9511 94.0164 73.0947C93.9645 73.1939 93.8926 73.26 93.8513 73.2949C93.8039 73.335 93.7531 73.3695 93.7078 73.3975C93.617 73.4533 93.5089 73.5078 93.3992 73.5586C93.1776 73.661 92.8982 73.7722 92.6257 73.8779C92.3464 73.9864 92.0746 74.0893 91.8445 74.1826C91.7304 74.2289 91.6325 74.2699 91.5554 74.3057C91.5358 74.3148 91.5183 74.3233 91.5027 74.3311C91.3656 74.5802 91.2525 74.9437 91.116 75.3867C91.0437 75.6213 90.9656 75.8727 90.8767 76.1025C90.789 76.3292 90.6783 76.5662 90.53 76.7627V76.7637C90.398 76.9383 90.2138 77.0997 89.9656 77.1484C89.7073 77.1991 89.4914 77.1066 89.3474 77.0039C89.0913 76.8213 88.932 76.5163 88.8611 76.3652C88.6866 75.9934 88.5757 75.5712 88.4763 75.207C88.3907 74.8934 88.3103 74.617 88.2107 74.376L86.0457 73.4346L85.9949 73.4121L85.95 73.3789C85.6644 73.1698 85.542 72.8496 85.5964 72.5322C85.6463 72.2425 85.8327 72.005 86.0593 71.8594H86.0583C86.2297 71.7489 86.4491 71.6561 86.655 71.5771C86.8653 71.4965 87.1048 71.4147 87.3191 71.3389C87.541 71.2603 87.7424 71.1852 87.908 71.1104C88.0822 71.0315 88.1647 70.9739 88.1921 70.9473C88.1991 70.9371 88.2162 70.911 88.2419 70.8604C88.2784 70.7884 88.3194 70.6926 88.365 70.5752C88.4572 70.3378 88.5517 70.0546 88.655 69.7549C88.7545 69.4666 88.8632 69.1606 88.9773 68.916C89.0256 68.8126 89.0825 68.7068 89.1462 68.6113C89.1192 68.5246 89.0903 68.4047 89.1042 68.2754C89.1228 68.1048 89.2228 67.8962 89.4568 67.8037Z" fill="black" stroke="black"/>
<path d="M89.6545 67.7871C89.6966 67.7925 89.7632 67.8036 89.8362 67.833L89.9114 67.8691L90.0608 67.9551L90.1262 68.1152L91.1018 70.5049L93.2522 71.4316L93.2844 71.4453L93.3157 71.4639C93.5849 71.629 93.6625 71.9212 93.6848 72.0801C93.7089 72.2518 93.6992 72.4816 93.5979 72.6758C93.546 72.7751 93.4741 72.842 93.4329 72.877C93.3855 72.9171 93.3347 72.9516 93.2893 72.9795C93.1985 73.0353 93.0904 73.0899 92.9807 73.1406C92.7591 73.2431 92.4797 73.3542 92.2073 73.46C91.928 73.5684 91.6561 73.6704 91.426 73.7637C91.3119 73.8099 91.2141 73.8519 91.137 73.8877C91.117 73.8969 91.0991 73.9053 91.0833 73.9131C90.9464 74.1623 90.8339 74.526 90.6975 74.9688C90.6252 75.2034 90.5472 75.4547 90.4583 75.6846C90.3705 75.9113 90.2598 76.1482 90.1116 76.3447C89.9856 76.5114 89.7936 76.6917 89.5198 76.7236C89.2325 76.7571 89.0213 76.6105 88.9055 76.498C88.7898 76.3856 88.7065 76.2493 88.6506 76.1475C88.593 76.0423 88.543 75.9322 88.5129 75.8682C88.3459 75.5123 88.2184 75.1262 88.1008 74.7773C88.001 74.481 87.9053 74.2087 87.7952 73.959L85.6272 73.0156L85.5764 72.9941L85.5315 72.9609C85.2457 72.7518 85.1234 72.4308 85.178 72.1133C85.2279 71.8237 85.4143 71.586 85.6409 71.4404H85.6418C85.8129 71.3304 86.0314 71.2369 86.2366 71.1582C86.4468 71.0776 86.6864 70.9967 86.9006 70.9209C87.1226 70.8423 87.3239 70.7673 87.4895 70.6924C87.6614 70.6146 87.7442 70.5573 87.7727 70.5303C87.779 70.5211 87.7964 70.4947 87.8235 70.4414C87.86 70.3695 87.901 70.2745 87.9465 70.1572C88.0387 69.9198 88.1332 69.6366 88.2366 69.3369C88.336 69.0487 88.4448 68.7427 88.5588 68.498C88.6156 68.3763 88.6825 68.2498 88.761 68.1426C88.8282 68.0507 88.9596 67.8938 89.1692 67.8291H89.1702C89.2636 67.8005 89.3765 67.7842 89.4758 67.7803C89.5279 67.7782 89.5902 67.7789 89.6545 67.7871Z" fill="white" stroke="black"/>
<path d="M17.2444 61.1162C17.433 61.0417 17.6115 61.0794 17.6975 61.1025C17.8863 61.1533 18.0784 61.2657 18.1956 61.3389C18.2614 61.38 18.3207 61.4197 18.3645 61.4492L18.4221 61.4883L18.5803 61.5791L18.6428 61.749L20.3372 66.3027L23.5168 67.2891L23.5764 67.3076L23.6301 67.3408C23.7314 67.403 23.81 67.4874 23.8616 67.5488C23.9193 67.6176 23.9752 67.6958 24.0266 67.7754C24.1296 67.935 24.2327 68.126 24.3206 68.3154C24.4077 68.5034 24.4875 68.7059 24.5374 68.8887C24.562 68.9792 24.5827 69.0803 24.5901 69.1797C24.5962 69.2626 24.6002 69.4222 24.5188 69.5781C24.4612 69.6882 24.3786 69.767 24.3225 69.8145C24.2604 69.8671 24.1905 69.9141 24.1223 69.9561C23.9858 70.0401 23.8168 70.1254 23.636 70.209C23.2723 70.3771 22.8098 70.5623 22.3489 70.7412C21.8811 70.9228 21.4157 71.0979 21.0237 71.2568C20.6953 71.3899 20.4614 71.4959 20.3303 71.5674C20.0476 72.0375 19.8315 72.7316 19.5911 73.5117C19.4683 73.91 19.3399 74.3237 19.1946 74.6992C19.0865 74.9785 18.9626 75.2543 18.8137 75.499L18.6565 75.7324C18.4618 75.9901 18.2168 76.1919 17.9114 76.252C17.5958 76.3139 17.3251 76.204 17.1321 76.0664C16.8668 75.8772 16.6674 75.5817 16.5344 75.3398L16.4231 75.1211C16.1433 74.525 15.9626 73.843 15.7922 73.2188C15.6348 72.6419 15.4844 72.109 15.2776 71.6445L11.4895 69.9961L11.4387 69.9736L11.3938 69.9414C11.0149 69.6643 10.862 69.2521 10.9319 68.8457C10.997 68.4673 11.2436 68.1437 11.5598 67.9404C11.8173 67.7745 12.1589 67.6276 12.5042 67.4951C12.854 67.3609 13.2503 67.226 13.6184 67.0957C13.9941 66.9627 14.3465 66.8323 14.6409 66.6992C14.9443 66.562 15.1332 66.4442 15.2249 66.3535C15.2491 66.3279 15.2998 66.258 15.3713 66.1172C15.4404 65.9812 15.515 65.8088 15.594 65.6055C15.753 65.196 15.9155 64.7064 16.0881 64.2061C16.2568 63.7172 16.4351 63.2154 16.6194 62.8203C16.7112 62.6234 16.8135 62.4334 16.927 62.2783C16.9422 62.2575 16.9597 62.2363 16.9778 62.2139C16.9598 62.1682 16.9416 62.1249 16.928 62.083C16.8848 61.9507 16.8471 61.7908 16.8645 61.6299C16.8854 61.4365 16.9954 61.2146 17.2444 61.1162Z" fill="black" stroke="black"/>
<path d="M17.1624 61.0967C17.2376 61.0937 17.3229 61.0956 17.4075 61.1064C17.4837 61.1162 17.6009 61.1386 17.7141 61.2031L17.8645 61.2881L17.9299 61.4482L19.6321 65.6201L23.3958 67.2412L23.429 67.2549L23.4602 67.2744C23.782 67.4721 23.8903 67.8344 23.9231 68.0684C23.9577 68.3153 23.9389 68.6247 23.8118 68.8682C23.7542 68.9783 23.6715 69.057 23.6155 69.1045C23.5533 69.1571 23.4834 69.2041 23.4153 69.2461C23.2787 69.3301 23.1098 69.4154 22.929 69.499C22.5653 69.6672 22.1028 69.8523 21.6418 70.0312C21.1741 70.2128 20.7087 70.3879 20.3167 70.5469C19.9883 70.68 19.7544 70.7859 19.6233 70.8574C19.3406 71.3275 19.1244 72.0217 18.884 72.8018C18.7613 73.2001 18.6329 73.6138 18.4875 73.9893C18.3435 74.3615 18.1716 74.7281 17.9495 75.0225C17.7607 75.2722 17.5105 75.4893 17.1838 75.5273C16.8438 75.5669 16.5847 75.3954 16.426 75.2412C16.2674 75.087 16.1459 74.8918 16.0569 74.7295C15.9662 74.5642 15.8878 74.3925 15.8342 74.2783V74.2773C15.562 73.6973 15.3531 73.0648 15.1526 72.4697C14.9688 71.9242 14.7878 71.4079 14.5686 70.9336L10.7825 69.2861L10.7317 69.2637L10.6868 69.2314C10.3079 68.9544 10.155 68.5421 10.2249 68.1357C10.2899 67.7573 10.5366 67.4337 10.8528 67.2305C11.1102 67.0645 11.4519 66.9176 11.7971 66.7852C12.147 66.6509 12.5433 66.5161 12.9114 66.3857C13.2871 66.2527 13.6395 66.1224 13.9338 65.9893C14.2373 65.852 14.4262 65.7342 14.5178 65.6436C14.5421 65.6179 14.5928 65.5481 14.6643 65.4072C14.7333 65.2713 14.808 65.0988 14.887 64.8955C15.046 64.4861 15.2085 63.9964 15.3811 63.4961C15.5498 63.0072 15.7281 62.5054 15.9124 62.1104C16.0042 61.9135 16.1065 61.7235 16.22 61.5684C16.3222 61.4287 16.4885 61.2405 16.7327 61.165L16.7346 61.1641C16.8579 61.1264 17.0173 61.1025 17.1624 61.0967Z" fill="white" stroke="black"/>
</svg>
