<svg width="86" height="99" viewBox="0 0 86 99" fill="none" xmlns="http://www.w3.org/2000/svg">
<g clip-path="url(#clip0_2656_1648)">
<path d="M79.9666 7.41799C80.9571 6.39353 85.4428 2.08643 85.7908 1.29094C85.9588 0.909977 86.1111 0.602046 85.8877 0.175679L84.9031 0C75.7933 3.41686 66.6814 6.83174 57.5577 10.2111C53.9814 11.5356 49.5629 12.7397 46.1862 14.2537C45.3836 14.6129 44.4208 15.0413 45.0396 16.0914C45.9154 17.5817 49.3059 19.5122 50.3893 21.1131C47.7856 21.1703 45.1147 22.0862 43.4699 24.1746C42.7028 25.1497 41.4909 28.0494 40.453 28.4659C39.6642 28.7837 38.8378 28.5172 38.0352 28.6179C35.3129 28.9594 32.8733 30.6589 31.7287 33.1777C30.7718 35.2818 31.2562 36.9577 28.8482 38.1973C26.4403 39.437 25.2739 39.2711 23.6192 41.859C22.3064 43.9118 22.947 46.0713 20.8731 47.4076C18.2813 49.0776 16.3538 48.5071 14.5053 51.9062C11.7712 56.9279 14.881 60.2204 18.1528 63.4694C18.3169 63.6333 18.4355 63.6451 18.3624 63.9471C17.2988 64.2235 16.2609 64.6479 15.2645 65.0979C14.3986 65.4888 10.3715 67.3008 10.0473 67.7844C9.92075 67.9739 9.81202 68.1378 9.85156 68.3805L19.1393 78.037C14.28 83.0566 9.37709 88.0428 4.53352 93.0684C3.37304 94.2725 1.65506 95.6147 0.638899 96.7853C-0.312022 97.8788 -0.30016 99.075 1.35654 99C13.1946 93.9014 25.4716 89.7897 37.3393 84.772C38.3159 84.3594 40.6468 83.7712 40.0082 82.5079L35.1686 77.3757C36.6355 76.8783 38.1242 76.8862 39.4566 76.0295C41.8072 74.5194 43.2228 71.4401 43.0765 68.6885C48.2423 69.9044 53.8015 65.9566 52.9613 60.398C54.8058 61.154 55.3139 63.2799 56.4368 64.7229C58.7459 67.6917 62.3578 68.6904 65.8808 67.2771C69.0993 65.9862 73.2153 60.8323 75.7893 58.2208C77.9758 56.0021 80.8128 54.2631 81.568 50.9627C83.195 43.8487 77.3551 40.5502 73.1263 36.1208L79.8006 34.8022L80.2138 33.6968L67.407 20.2583C71.5724 15.9611 75.815 11.7231 79.9686 7.42391L79.9666 7.41799Z" fill="white"/>
<path d="M79.966 7.41805C75.8124 11.7173 71.5699 15.9553 67.4044 20.2525L80.2112 33.6909L79.798 34.7963L73.1237 36.1149C77.3525 40.5444 83.1924 43.8428 81.5654 50.9568C80.8102 54.2592 77.9732 55.9962 75.7867 58.2149C73.2127 60.8264 69.0967 65.9803 65.8782 67.2713C62.3552 68.6846 58.7453 67.6838 56.4342 64.717C55.3113 63.2741 54.8012 61.1482 52.9587 60.3922C53.7989 65.9507 48.2417 69.8986 43.0739 68.6826C43.2202 71.4343 41.8047 74.5155 39.454 76.0236C38.1216 76.8803 36.6309 76.8724 35.166 77.3698L40.0056 82.502C40.6442 83.7653 38.3133 84.3536 37.3367 84.7661C25.471 89.7838 13.194 93.8955 1.35395 98.9941C-0.302748 99.0691 -0.316587 97.8729 0.63631 96.7794C1.65247 95.6089 3.37045 94.2666 4.53093 93.0625C9.37648 88.0389 14.2774 83.0508 19.1368 78.0311L9.84897 68.3747C9.80943 68.1319 9.91817 67.9681 10.0447 67.7786C10.3689 67.2949 14.396 65.4849 15.2619 65.0921C16.2603 64.64 17.2982 64.2176 18.3598 63.9413C18.433 63.6392 18.3143 63.6254 18.1503 63.4636C14.8784 60.2145 11.7686 56.922 14.5028 51.9003C16.3532 48.5032 18.2807 49.0717 20.8706 47.4018C22.9444 46.0654 22.3039 43.906 23.6166 41.8531C25.2733 39.2653 26.4693 39.4133 28.8456 38.1915C31.222 36.9696 30.7712 35.276 31.7261 33.1718C32.8707 30.6531 35.3103 28.9535 38.0326 28.612C38.8333 28.5114 39.6616 28.7778 40.4504 28.46C41.4864 28.0416 42.6982 25.1439 43.4673 24.1687C45.1121 22.0803 47.783 21.1644 50.3867 21.1072C49.3033 19.5063 45.9148 17.5758 45.037 16.0855C44.4202 15.0354 45.383 14.6071 46.1836 14.2478C49.5603 12.7338 53.9788 11.5297 57.5551 10.2052C66.6788 6.82785 75.7907 3.411 84.9005 -0.00585938L85.8851 0.16982C86.1085 0.596186 85.9543 0.902144 85.7882 1.28508C85.4402 2.08057 80.9545 6.38569 79.9641 7.41213L79.966 7.41805ZM49.0067 15.7855L67.2027 34.6424C67.5744 34.8062 74.4444 33.6041 75.2154 33.3652C75.4585 33.2902 75.7373 33.3455 75.8915 33.0494L75.6048 32.3546L64.6149 20.8269L64.4053 20.0255L78.4596 5.12239L49.0048 15.7835L49.0067 15.7855ZM48.3603 23.7266C47.7079 23.8351 46.7767 24.3701 46.2548 24.7826C45.1556 25.6512 43.145 28.4719 43.9714 29.7845C49.4318 34.9306 54.5304 41.5215 60.1687 46.3832C60.6175 46.7701 61.5921 47.5893 62.0646 47.8459C66.9714 50.5186 72.1234 44.5376 68.5767 39.7647C63.5888 35.4754 59.0734 29.3463 54.0401 25.2623C52.2806 23.8351 50.6713 23.3377 48.3603 23.7246V23.7266ZM43.2043 32.629C37.6174 27.7948 30.4312 34.5062 34.569 39.5732C35.334 40.5108 36.4253 41.2175 37.2477 42.0307C41.7849 46.5135 46.2014 51.1266 50.79 55.5521C51.6697 56.3989 52.1857 57.3859 53.5419 57.7392C58.7413 59.0973 62.3789 54.044 59.8464 49.4704L43.2063 32.627L43.2043 32.629ZM56.7149 60.1987C57.8576 63.355 60.0204 65.9468 63.7114 65.5026C66.8449 65.1276 69.5316 61.2844 71.6351 59.2019C75.0809 55.789 82.0497 50.8917 78.7008 45.2502C77.8942 43.8902 73.0723 39.366 71.647 38.0809C71.4176 37.8756 70.1543 36.7466 70.0575 36.7051C69.8143 36.6005 69.6898 36.7466 69.7669 36.9953C69.9151 37.4789 70.8048 38.5981 71.0914 39.2278C71.4611 40.043 72.0068 41.2866 72.1155 42.1531C72.7699 47.4393 67.9718 51.6043 62.8455 50.716C62.9186 52.3761 63.0531 53.6354 62.5509 55.258C61.8313 57.5813 59.0912 59.721 56.7189 60.1948L56.7149 60.1987ZM29.3853 40.5089C27.3827 40.803 25.6153 42.5578 25.0281 44.4488C24.2433 46.9774 24.8759 48.1302 26.4733 50.0251C31.0559 55.4633 37.3723 60.2184 42.2178 65.4928C47.2868 69.0557 53.5281 62.9168 49.3982 57.7313C44.9263 52.1194 37.827 47.0129 33.0882 41.4465C31.821 40.4635 31.0183 40.2661 29.3873 40.5069L29.3853 40.5089ZM27.9283 69.9933C29.6859 71.76 31.8348 74.4919 34.4958 74.782C39.4521 75.3229 42.5796 69.7959 39.3236 66.0158C34.0629 61.9377 29.3241 55.0211 24.1899 51.1226C20.0442 47.9742 14.5146 52.836 16.1436 57.5773C16.6557 59.0696 19.2811 61.1837 20.4435 62.3641C22.9424 64.8986 25.4196 67.4726 27.9283 69.9933ZM36.5499 82.5001L36.3561 82.0066L19.8386 65.7178L13.026 68.5859C16.114 71.681 19.5499 74.5057 22.2821 77.9166L22.29 78.414L6.69967 94.1482L36.5519 82.502L36.5499 82.5001Z" fill="black" stroke="black" stroke-linejoin="round"/>
<path d="M43.2045 32.629L59.8447 49.4725C62.3791 54.046 58.7396 59.0973 53.5401 57.7412C52.1859 57.3879 51.6679 56.4009 50.7882 55.5541C46.1997 51.1286 41.7831 46.5155 37.246 42.0328C36.4236 41.2195 35.3323 40.5129 34.5672 39.5752C30.4294 34.5082 37.6176 27.7969 43.2026 32.631L43.2045 32.629Z" fill="white" stroke="black"/>
<path d="M29.3854 40.5082C31.0144 40.2694 31.8171 40.4648 33.0863 41.4478C37.827 47.0142 44.9243 52.1188 49.3962 57.7326C53.5261 62.9161 47.2848 69.055 42.2159 65.4941C37.3723 60.2178 31.0559 55.4626 26.4713 50.0264C24.8739 48.1315 24.2413 46.9787 25.0262 44.4501C25.6133 42.5591 27.3807 40.8043 29.3834 40.5102L29.3854 40.5082Z" fill="white" stroke="black"/>
<path d="M49.0068 15.7861L78.4617 5.125L64.4074 20.0281L64.617 20.8295L75.6069 32.3572L75.8936 33.052C75.7394 33.3481 75.4606 33.2928 75.2175 33.3679C74.4464 33.6047 67.5765 34.8068 67.2048 34.645L49.0088 15.7881L49.0068 15.7861Z" fill="#F2FF43"/>
<path d="M48.3605 23.7261C50.6716 23.3392 52.2828 23.8366 54.0404 25.2638C59.0717 29.3478 63.5891 35.4768 68.577 39.7662C72.1237 44.5371 66.9737 50.5201 62.0649 47.8474C61.5924 47.5908 60.6197 46.7716 60.169 46.3847C54.5287 41.523 49.4321 34.932 43.9717 29.786C43.1453 28.4734 45.1539 25.6507 46.2551 24.7841C46.777 24.3716 47.7081 23.8366 48.3605 23.7281V23.7261Z" fill="white" stroke="black"/>
<path d="M27.9284 69.993C25.4216 67.4723 22.9445 64.8983 20.4436 62.3638C19.2812 61.1854 16.6558 59.0694 16.1437 57.5771C14.5147 52.8377 20.0423 47.9739 24.19 51.1223C29.3242 55.0208 34.063 61.9375 39.3237 66.0156C42.5817 69.7956 39.4522 75.3206 34.4959 74.7818C31.8349 74.4916 29.684 71.7597 27.9284 69.993Z" fill="white" stroke="black"/>
<path d="M36.5499 82.4991L6.69775 94.1452L22.2881 78.4111L22.2802 77.9137C19.548 74.5027 16.1121 71.68 13.024 68.5829L19.8367 65.7148L36.3542 82.0036L36.548 82.4971L36.5499 82.4991Z" fill="#F2FF43"/>
<path d="M56.7154 60.1977C59.0877 59.724 61.8278 57.5842 62.5474 55.2609C63.0496 53.6403 62.9171 52.381 62.842 50.719C67.9683 51.6072 72.7664 47.4422 72.112 42.1561C72.0052 41.2876 71.4576 40.044 71.0879 39.2307C70.8013 38.601 69.9116 37.4818 69.7634 36.9982C69.6863 36.7495 69.8108 36.6034 70.054 36.7081C70.1508 36.7495 71.4141 37.8766 71.6435 38.0839C73.0708 39.3689 77.8907 43.8931 78.6973 45.2532C82.0462 50.8927 75.0774 55.7899 71.6316 59.2048C69.5281 61.2873 66.8414 65.1305 63.7079 65.5056C60.0169 65.9477 57.8541 63.358 56.7114 60.2017L56.7154 60.1977Z" fill="white" stroke="black"/>
</g>
<defs>
<clipPath id="clip0_2656_1648">
<rect width="86" height="99" fill="white"/>
</clipPath>
</defs>
</svg>
